# xmcd CD database file
#
# Track frame offsets:
#	150
#	14245
#	84962
#	115742
#	124235
#	167720
#	190247
#	200877
#	216757
#	229505
#	243340
#	259475
#
# Disc length: 3631 seconds
#
# Revision: 2
# Processed by: cddbd v1.5.2PL0 Copyright (c) Steve Scherf et al.
# Submitted via: CDex 1.70beta2
#
DISCID=ac0e2d0c
DTITLE=さまざまなアーティスト - ウィンター・スペシャル
DYEAR=1900
DGENRE=Classical
TTITLE0=シバの女王の入場
TTITLE1=コレッリ/合奏協奏曲ト短調作品6の8<クリスマス>
TTITLE2=トレッリ:トランペット協奏曲ニ長調
TTITLE3=モーツァルト:<6つのドイツ舞曲>(K.509)より第1番ニ短調
TTITLE4=ヨハン・シュトラウス2世:ワルツ<ウィーンのボンボン>
TTITLE5=モーツァルト:「グロリア」
TTITLE6=ドビュッシー/<雪が踊っている>〜組曲(子供の領分)より
TTITLE7=ヴィヴァルディ/協奏曲第1番第1楽章〜合奏協奏曲集(調和の霊感)作品3より
TTITLE8=ヨハン・シュトラウス2世:<シャンペン・ポルカ>作品211
TTITLE9=テレマン/<終曲ニ長調>〜(ターフェルムジーク)第2集より
TTITLE10=ボッケリーニ:「メヌエット」
TTITLE11=クラーク/<トランペット・ヴォランタリー(デンマーク王子の行進)>
EXTD=
EXTT0=
EXTT1=
EXTT2=
EXTT3=
EXTT4=
EXTT5=
EXTT6=
EXTT7=
EXTT8=
EXTT9=
EXTT10=
EXTT11=
PLAYORDER=
